<svg xmlns="http://www.w3.org/2000/svg" viewBox="0 0 100 100"><g><path fill="#421702" d="M81.8 8.4c3.3-.5 6.5 1.7 6.8 5.1c.5 4.9-5 13.6-6.4 18.6c-.7 2.3 .1 4.7-1.7 6.7c-14.5 15.7-28.2 32.2-43 47.6c-1.8 1.9-4.2 5-7 5.2c-5.3 .5-13.8-8-16.7-12c-2-2.8-3.7-5.7-1.2-8.9c14.7-16.9 30.2-33.1 45.1-49.8c1.1-1.1 2-2.3 3.5-2.7c.9-.3 1.5-.1 2.3-.3c3-.5 11.4-6.5 14.8-8.2C79.4 9.2 80.8 8.6 81.8 8.4z"/><path fill="#FB6861" d="M69.7 43c-.7 1.2-1.5 2.3-2.4 3.4C57.7 58.1 47.2 69.3 36.9 79.8L36.4 79.6c-.2 0-.4-.1-.6-.1c-.2-.1-.4-.1-.5-.2c-5.3-3.7-10.4-8.9-14-14.1L21.4 64.6c10.9-12.3 22.1-24.3 33.3-36.4l.9 .7c4.1 5.1 8.7 9.6 13.8 13.6L69.7 43z"/><path fill="#EC2418" d="M85.7 13.2l0 1c-2.7 5.6-6.1 11.4-9.9 16.2L75.4 30.3c-1-.8-2-1.5-3-2.3c-1-.9-6.8-6.7-6.8-7.5c0-.1 0-.2 .1-.3c3.5-2 6.9-4.2 10.4-6.1C78.8 12.6 83.9 8.8 85.7 13.2z"/><path fill="#F34640" d="M72.1 44.6c-10.9 12.3-21.9 24.6-33.1 36.6c-.5 .5-2.2-.4-2.1-1c-.5 0-.8 0-.5-.5c.3 0 .5-.2 .7-.4c5.5-5.3 11.1-11.8 16.3-17.5C58.9 55.6 64.4 49.3 69.7 43c0-.2 .1-.1 .2 0C70.4 42.7 72.2 44 72.1 44.6z"/><path fill="#EA2319" d="M31 84.8c.2 0 .1 .1 0 .2c-.1 .8-.6 1.4-1.5 2c-.7 .8-1.4 1.2-2.2 1.2c-3.5-1.8-7.2-5.1-9.8-8.1c-.9-1.1-3.3-4.2-3.6-5.5C13.7 72.9 15.7 71.1 16.7 69.9l.4 .1c3.5 5.5 8.1 10.3 13.6 14.4L31 84.8z"/><path fill="#6B2319" d="M36.4 79.6c.1 .1 .3 .4 .5 .5l-.2 .4c-1.2 .6-2.2 1.5-3.1 2.7L33.3 83.1c-.1 .5-.2 .4-.3 0c-.1 0-.3 0-.4 0c-1.2-.1-6.7-5.4-7.9-6.6c-2.4-2.4-4.4-4.9-6.4-7.6L18.1 68.3c1.1-1.2 2.2-2.4 3.3-3.7c.4 .8 1 1.6 1.6 2.3C26.8 71.8 31.4 76.1 36.4 79.6z"/><path fill="#6B2318" d="M72.6 39.5c.2 .1 .2 .1 0 .2l0 .6l-2.2 2.6L69.9 43h-.2c-5.5-4.4-11-9-15-14.8c1-1.1 2-2.2 3-3.3c.8 .6 1.6 1.3 2.1 2.3c3.9 4.6 7.5 7.7 12.2 11.5C72.3 38.9 72.5 39.2 72.6 39.5z"/><path fill="#EC241A" d="M76.7 34.3c.3 .3 .2 .7-.2 1.2l-1.6 2.2L74.4 37.8c-.3 .3-.4 .3-.3-.2c-.2 0-.3 0-.5 0c-.1 0-.3-.1-.4-.1c-5.2-3.6-10-8.6-13.9-13.6L59.2 23.2c.6-.6 2.4-2.9 3.3-2.5c.4 .2 2.7 3.3 3.2 3.9C68.9 28 72.9 31.6 76.7 34.3z"/><path fill="#FB665F" d="M32.9 83.1c.4 .8-1.1 2.3-1.9 1.7c-4.7-3.5-9.4-7.7-12.9-12.5c-.5-.7-1.2-1.6-1.4-2.5c.4-.5 .9-1 1.4-1.6c1.3 1.4 2.3 3.1 3.6 4.5C24.7 76.3 29.1 80.5 32.9 83.1z"/><path fill="#FB665D" d="M74 37.6c.7 .5-.7 2-1.4 1.9c-2.4-1.7-4.7-3.6-6.9-5.6C62.9 31.3 59.9 28.2 57.7 24.9c.5-.6 1-1.2 1.6-1.7c.7 .9 1.3 1.8 2 2.6C64.7 29.9 69.6 34.5 74 37.6z"/><path fill="#D71710" d="M75.4 30.3c.5-.3 .8-.8 1.1-1.2c2.7-3.8 5.5-8.4 7.7-12.5C84.8 15.6 85.5 14.3 85.7 13.2c.7 1.7 .1 2.8-.5 4.5c-1.7 5.1-4.3 9.9-6.1 15c-.2 .2-.2 .2-.4 .1C77.6 32.3 76.4 31.1 75.4 30.3z"/><path fill="#D5160F" d="M34 86.4c-2.7 2.6-2.7 3.7-6.6 1.7c1.3-.8 2.6-2 3.7-3.1c.3-.3 2.7 .8 2.9 1C34 86.1 34 86.3 34 86.4z"/><path fill="#D71911" d="M76.7 39.4c-.7 .3-2.2-.8-2.3-1.6c.6-1.3 1.8-2.1 2.3-3.5c.4 .3 2.1 1.1 2.3 1.3C79.8 36.6 77.2 38.7 76.7 39.4z"/><path fill="#591C10" d="M36.9 80.1c.6 .4 1.4 1 2.1 1c-1.1 1.2-2.3 2.5-3.5 3.7c-.1 .1-.2 .2-.3 .2c-.5-.3-2-1.4-1.9-1.9C34.4 82.1 35.3 80.4 36.9 80.1z"/><path fill="#581B10" d="M75.1 41.3c-1 1.1-2 2.2-3 3.3l-2.3-1.6c.8-1.2 1.9-2.2 2.8-3.3c.4-.4 2 .8 2.4 1.1L75.1 41.3z"/><path fill="#F2413C" d="M33.3 83.1l2.3 1.7c-.5 .5-1 1-1.6 1.6l-3-1.4v-.2c.8-.1 1.6-1.1 1.9-1.7C33 83.1 33.2 83.1 33.3 83.1z"/><path fill="#F3443E" d="M74.4 37.8c.7 .5 1.4 1.2 2.3 1.6c-.5 .6-1 1.3-1.6 1.9l-2.4-1.6c0 0 0-.1 0-.2c.5-.6 1.3-1.1 1.4-1.9C74.1 37.7 74.3 37.7 74.4 37.8z"/><path fill="#642015" d="M54.5 39.2c3.8-.5 5.9 1.8 5.6 5.6c-.8 8.5-14.4 24.1-22.8 25.8c-3.5 .7-6.2-.8-6.2-4.6C31.2 57.4 45.8 40.3 54.5 39.2z"/><path fill="#FCD8CD" d="M72.2 18.5c1-1 5.8-4 7-4.2c1-.2 1.4 .2 1 1.2c-.4 1.1-5.2 4.6-6.4 5.1C71.5 21.6 70.3 20.4 72.2 18.5z"/><path fill="#D42620" d="M54.1 41.2c3.1-.4 4.4 .9 4 4c-.8 7.4-13.4 21.7-20.5 23.5c-6.7 1.7-4.4-5.7-2.7-9.2C37.7 53.9 47.7 42 54.1 41.2z"/></g></svg>