<svg xmlns="http://www.w3.org/2000/svg" viewBox="0 0 100 100"><g><path fill="#633418" d="M47.1 8.4c9.9-.8 18.6 3.7 22.9 12.8c1.6 3.3 2.2 7.1 4.2 10.2c2.1 3 5.6 4.5 8.2 6.9c8.7 8.1 8.6 24.4-.5 32.1c-3.4 2.9-8.1 4-11.4 6.8c-2.6 2.2-4 5.5-6.3 8.1c-7.4 8.1-19.5 8.8-27.6 1.2c-1.3-1.2-2.3-2.7-3.7-3.9c-2.8-2.3-5.9-2.7-9.1-4.2c-15.8-7.7-16.6-29.3-5.8-41.7c2-2.3 4.7-4.1 6.4-6.5c2.1-2.9 3-6.6 4.6-9.8C32.7 13.7 39.5 9 47.1 8.4z"/><path fill="#FCF5E4" d="M86.7 57.2l-.3 .1c-1.2 5.9-5.7 10.7-10.9 13.3c-6 2.2-10.1 5.8-13.3 11.3C59.1 86.7 53.2 89.7 47.9 89.6c-8.6-.2-10.8-7.9-17.6-10.9c-3.1-1.3-5.8-1.9-8.6-3.9C10.7 66.7 10.5 50.2 18.2 39.7c2.5-3.4 6.1-5.7 8.4-9c2-3.1 2.8-6.8 4.6-10c7.7-13.6 28.4-14.1 36.2-.4c2.2 3.9 2.8 8.6 5.4 12.2c2.9 4 7.9 5.6 10.8 9.9C86.5 46.7 87.4 52.1 86.7 57.2z"/><path fill="#F9E6C5" d="M86.7 57.2c-.4 4.8-2.9 9.3-6.6 12.2c-3.2 2.5-7.3 3.5-10.4 6.1c-2.7 2.2-4.1 5.3-6.3 7.9c-3.8 4.4-8.5 6.5-14.4 6.4c-.3 0-.8 .1-1-.2c.4 0 1.1 .1 1.4 0c.1 0 .1-.3 .3-.4c4-.9 6.7-1.7 9.8-4.6c3.2-3 4.9-7.4 8.3-10.2c2.8-2.3 6.5-3.3 9.5-5.2c4.6-2.9 8.2-7.5 9.1-13L86.7 57.2z"/><circle fill="#C77402" cx="46.6" cy="51.2" r="17.6"/><path fill="#FCB318" d="M59.1 41.7c2.9 8.1-1.8 17.7-9.4 21.4c-4.1 2-9.5 2.5-13.4-.1c-4.5-3.9-6.3-10.1-4.8-15.9s6.3-10.1 12.1-11.3S55.5 36.9 59.1 41.7z"/><path fill="#F7A20E" d="M36.3 63c1.3 .4 2.4 1 3.8 1.2c9.7 1.6 18.1-6.1 19.4-15.4c.3-2.5-.1-4.6-.4-7.1c4.9 6.4 4.1 15.5-1.8 21C51.4 68.1 42.3 68.3 36.3 63z"/><path fill="#FCD079" d="M43.5 38.1c1.5-.1 2.9 .6 2.7 2.3c-.2 1.8-2.9 3.1-4.2 4.2c-1.2 1.1-3.1 3.8-4.7 3.9c-1.5 .1-2.1-1.5-2-2.7C35.8 42.3 40.1 38.3 43.5 38.1z"/></g></svg>