<svg xmlns="http://www.w3.org/2000/svg" viewBox="0 0 100 100"><g><path fill="#321D06" d="M26 49.6c-2.2-3.2-2-8.1 2.2-9.3c-.5-2.6-.4-5.1-.8-7.7c-2.7-1.4-5.8-3.9-5.5-7.3c.2-2.3 4.5-6.9 6.5-8.1c4-2.4 10.1-5 14.5-6.8c5.3-2.2 7.1-2.9 12.7-.8c4.7 1.7 11.3 4.7 15.6 7.2c2.2 1.3 6.6 6 6.9 8.6c.3 3.5-3 5.7-5.6 7.4c-.3 2.5-.2 5-.7 7.5c1.1 .1 1.8 .6 2.5 1.4c-.2 .2-.4 .2-.6 .1c-.1 .3-.3 .5-.6 .4l-.4 .1c-1.3-.9-2.9-.2-3.7 1c-.7 .7-1.5 .6-1.6-.4c-.4-2-.9-4-1.5-6c-8.8 1.2-18.1 1.1-27 .6c-1.7-.1-3.3-.2-4.9-.6c-.5 1.9-.9 3.9-1.3 6c-.1 1-.7 1.2-1.5 .6c-3.9-4.1-6.1 1.4-4.2 4.9L26.8 48.7C27.1 49.1 26.4 49.5 26 49.6z"/><path fill="#311C07" d="M40.5 60.6c0 .8 0 1.5 0 2l.1 .3c-1.5 1.4-1.2 2.4-.4 4.1c.9 1.9 2 3.6 3.2 5.2L43.3 72.6c.4 .2-.2 1.1-.6 .9l-.5 0c-1.6-1.6-2.7-3.7-3.6-5.7c-3.4 1.2-6.7 2.6-9.9 4.2c-.8 .2-1.2-.4-1.6-1c-4.7 4.7-6.1 11.8-6.4 18.1l7 .4c-.1-3.9 .1-7.8 .6-11.6c.4-2 1.9-1 1.7 .7c-.3 3.7-.4 7.4-.4 11.1l15.2 .3c.4-4.6 1.1-9.1 1.9-13.6c0-.2 .1-.4 .2-.5c.1-.2 .2-.4 .3-.5c.1-.5 1.2-.1 1.1 .3l.2 .4c-.8 4.6-1.4 9.2-1.6 13.8L46.6 90.5c0-.1 0-.3 .1-.3c1.5-.1 5.1-.2 6.4 0l.2 .3l-.3-.6c-.6-4.6-1.1-9.1-1.6-13.6L51.6 75.7l-.2-.7c.5-.3 .7-.8 .5-1.6l-.2-.3l.6-1.9l-2.1-2L50.2 68.9c-.5 0-1.6 0-1.6-.6c-.9 0-3.1-1.3-3.5-2c-.1-.1-.1-.2-.1-.4c-.1-.4 .4-.7 .8-.8l.3-.1c1.2 .9 2.5 1.6 3.9 2.1c1.8-.8 3.5-2 5-3.3L55.7 63.7c.6-.3 .3 .4 .1 .8c.3 0 .3 .1 .4 .3l-.1 .5c-1.3 1.2-2.7 2-4.2 2.9c.4 .5 4.2 4.2 4.5 4.1c.4 0 3.2-4.9 3.5-5.6c.9-2 .7-2.8-1-4.1L58.8 62.3c-.2-1.1 1-.4 1.5 0L60.7 62.3c.8 .8 2.3 .9 3.4 1.2c1.8 .6 8.3 3 9.1 4.5c.3 .6 .1 1 .3 1.5c.1 .2 1.8 1.9 2.2 2.4c3.1 4 4.6 9.9 5.1 14.9c.2 1.9 .8 3.6-1.5 4.1c-4 .9-10.5 .6-14.8 .7c-13.2 .3-27.8 .7-40.8-.3c-1-.1-3.7-.2-4.2-1.1c-.5-.8 0-3.6 .1-4.6c.7-5.3 2.4-10.9 6-15c.2-.3 1-.8 1.1-.9c.3-.4-.1-1.2 .6-1.9c1.5-1.6 7.3-3.7 9.5-4.4c.4-.1 2.1-.4 2.2-.4c.1 0 .9-1.1 .8-1.3c0-.1-.9-.6-1.1-.7c.3-.3 .5-.7 .8-.9C39.7 59.7 40.5 60.1 40.5 60.6z"/><path fill="#391E05" d="M74.3 41.8c2.8 3.5 .2 10.2-4.5 10.5c-.4 0-1.5-.2-1.6-.1c-.1 .1-.6 1.9-.8 2.3c-1.4 3.2-4 5.7-7.2 7.2c-.1 .1 .3 .5 .4 .6c0 .9-1.3-.3-1.5-.3c-.2 0-.3 .3-.4 .3l-.2 .4c-.7 .6-1.4 1.3-2.1 2.1L56.2 64.8c-1.3 0-.7-.4-.4-.9c0-.1-.1-.1-.1-.2l-.1-.2c-3.5 .9-7.3 .8-10.9 .1c.6 .5 1 1 1.1 1.5c-.1 .5-.3 .6-.8 .8l-.5 0c-1.2-.9-2.2-2-3.1-3.2c0 0-.3 0-1-.1c-.5 .1-.3-.2-.3-.5c0-.5-.2-1.3 .3-1.5l.6-.1c9.5 3.8 23.7 1.6 26-10.1c.1-.3 .3-.5 .7-.4c4.4 2.5 7.7-4 5.2-7.4L73.1 42.3C73.6 41.5 73.4 41.3 74.3 41.8z"/><path fill="#391E05" d="M39.3 59.9c0 .5-.1 1-.8 .9c-2.6-1.6-4.2-2.9-5.6-5.7c-.3-.5-1-2.9-1.1-3c-.1 0-1.1 .2-1.5 .2C28.4 52.2 27 51.1 26 49.6c.1-.5 .6-.5 .8-.9l.4 0c1.1 1.5 3.4 2.6 5 1.3c.4-.1 .7 .1 .8 .5c.9 3.7 2.6 6.9 6.1 8.9L39.3 59.9z"/><path fill="#FCCB8A" d="M26.8 48.7c-.6-1-.9-3-.8-4.1c.2-2.1 2-3.6 4-2.5c.5 .3 1.6 1.7 2.1 1.4c.3-.3 1.1-6 1.8-6.8c3.2 .6 6.4 .7 9.7 .8c6.2 .2 12.5 .3 18.8-.3c1.2-.1 2.5-.4 3.7-.5c.7 .8 1.5 6.6 1.8 6.8c.6 .4 1.1-.7 1.6-1.1c1-.8 2.6-1 3.6-.1c.2 .2 .7 1.1 .8 1.5c1 3.1-1.2 7.7-4.9 7.1c-.4-.1-1.3-.7-1.5-.5c-.4 1.2-.7 2.5-1.2 3.6C62.2 63 48.6 64.3 40.5 60.6c-.4-.2-.9-.4-1.3-.6c-2.3-1.4-4.4-3.5-5.5-6c-.2-.6-1.1-3.5-1.2-3.6c-.3-.2-.9 .5-1.3 .6C29.6 51.1 27.6 50.1 26.8 48.7z"/><path fill="#205FA3" d="M72.5 31.1c.3-1.8-1.2-2.7-2.5-3.5c-4.4-2.7-9.9-3.8-15-4.3c.2-.6 .6-1.2 .9-1.8c.3-.6 .5-1.5 .6-2.2c.1-.7 .2-3 0-3.6c-.4-1.2-2.5-1.1-3.5-1.5c-.8-.3-1.8-1.4-2.4-1.5c-1.6-.3-2.1 .9-3.4 1.5c-1.5 .6-3.5 .1-3.8 2.2c-.2 2.2 .3 5.1 1.6 6.8c.2 .5-1.4 .3-1.7 .3c-4.5 .5-10.1 2.1-13.9 4.6c-1.2 .8-2.2 1.4-1.9 3l-2.3-1.6c-3.5-3.3-1.5-5.8 1.2-8.7c2.6-2.8 7-4.5 10.5-6.1c2.9-1.3 9.2-4.5 12.1-4.8c4.2-.5 11.6 3.3 15.5 5.2c5 2.4 8.8 3.9 11.7 8.9c1.1 2 .6 3.5-.9 5.1C75 29.4 72.7 31.4 72.5 31.1z"/><path fill="#2A3945" d="M46.9 29.5c6.5-.3 14.5 .3 20.4 3.1c.7 .4 1.5 .7 2.1 1.3c0 1.1-7.2 1.9-8.2 2c-7.5 .7-18.7 .8-26.1-.4c-.7-.1-4.8-1-4.8-1.6C35.1 30.9 41.4 29.8 46.9 29.5z"/><path fill="#1E4775" d="M71.2 33.5c-.7-.5-1.4-1.1-2.2-1.5c-9.4-5.3-28.2-5.1-37.7-.2c-.9 .4-1.7 1-2.4 1.6c-.3-.7-.4-2.9 0-3.4c.1-.2 1-.7 1.3-.9c3.7-2.5 10.7-4.4 15.1-4.6c1.3 0 1.5 .6 2.6 1.2c1.3 .7 1.8 .9 3.2 .4c.8-.3 2.2-1.5 2.6-1.6c1.4-.3 5.2 .5 6.8 .9c3 .7 6.3 1.7 8.9 3.5C69.7 29.1 71.2 30.1 71.2 30.3V33.5z"/><path fill="#FBD55B" d="M49.9 14c1 .4 1.7 1.2 2.8 1.6c1.1 .4 2.5 0 2.6 1.3c.3 3.2-1.3 6.4-4.1 7.8c-1.3 .7-1.6 .6-2.8-.2c-3-1.7-4.1-5.2-3.5-8.4C46.9 16 48.3 15.1 49.9 14z"/><path fill="#935520" d="M70.9 34.6c.5 .5-.2 4.9-.5 5.8l-1.7 .9l-1.3-5.2c.9 0 2.1-.5 2.8-1C70.4 35 70.6 34.4 70.9 34.6z"/><path fill="#955620" d="M29 34.7c.1-.1 1.7 .9 2 1c.4 .2 1.5 .3 1.6 .8c0 1-1.3 3.5-1.2 4.8c-.3-.4-1.5-.7-1.7-.8c-.3-.4-.4-2.8-.7-3.3V34.7z"/><path fill="#215FA2" d="M42.7 73.6c.8 0 1.2 0 1.2 0c.8-.6 1.5-1.2 2.3-1.7c.4 0 2.2 3.3 1 3.5c-.6 5-1.7 10-2 15l-15.8-.3c0-1.6 0-3.3 0-4.9c0-2.1 .6-5.3 .3-7.4c-.1-.6-.6-.8-.8-.3c-.3 .8-.5 3.4-.6 4.4c-.1 .9-.1 2-.2 3c-.1 1.7 .1 3.4 0 5.1l-7.6-.5c-.4-.3 .4-5.6 .6-6.5c.9-4.5 2.6-9.2 6-12.3c.4-.1 .6 1.2 1.5 1.1c3.2-1.7 6.6-3.1 10-4.2C39.9 69.4 41 72.2 42.7 73.6z"/><path fill="#205FA2" d="M79.5 89.5l-1.9 .3l-5.8 .2c-.2-3.4 0-6.9-.4-10.3c0-.4-.1-2.4-.7-2.4c-.9 0-.4 1.6-.4 2c.1 3.6 .2 7.2 .2 10.9l-15.7 .2c-.3-.2-.1-.9-.1-1.3c-.3-2.6-.6-5.2-1-7.8c-.2-1.7-1.1-5.1-1.1-6.6c0-.1 .9-2.3 1-2.6c.1-.2 .1-.2 .2-.1c.5 .6 2.1 2.2 2.9 1.8c1.4-.6 3.7-4.9 4.4-6.3c3.5 1 6.9 2.5 10.2 4.2c.8 .1 1.2-1.1 1.5-1.1c3.2 2.9 4.9 7.1 5.8 11.3C79.2 84.4 79.6 87 79.5 89.5z"/><path fill="#1D3E5A" d="M48.4 75.7c-.8-.9 2.1-.9 2.8-.9c.4-.1 .6 .2 .5 .9c.5 2.6 .8 5.4 1.1 8.1c.3 2.2 .5 4.4 .6 6.6h-6.7c0-1 .1-2 .2-3C47.1 84.2 47.6 78.7 48.4 75.7z"/><path fill="#215FA2" d="M45.1 65.9c1.1 .9 2.3 1.6 3.6 2.3c0 .2-.1 .3-.2 .4c-.4 .8-3.7 3.6-4.7 4.2c-.2 .1-.4 0-.5-.2c-1.2-1.6-4.5-6.3-4-8.3c.1-.3 1-1.4 1.2-1.7c1.1-1.1 1.9 .8 2.6 1.6C43.7 64.8 44.4 65.4 45.1 65.9z"/><path fill="#215FA1" d="M58.8 62.3c.6 .2 1.8 1.6 1.9 2.1c.3 2.1-2.9 6.6-4.2 8.3c-.4 .2-4.5-3.9-5.2-4.4c-.1-.3 .1-.2 .2-.3c1.8-1 3.1-1.8 4.7-3.3c.5-.4 1-1 1.4-1.5C58.2 62.6 57.7 62.7 58.8 62.3z"/><path fill="#FBCB89" d="M45.9 65.1c-.7-.5-1.4-1.4-2-2c4 .9 8.2 1.1 12.2 0c.1 .3-.2 .4-.3 .6c-1 .8-2 1.7-3.1 2.4c-.4 .2-2.2 1.3-2.4 1.3C49.6 67.5 46.4 65.6 45.9 65.1z"/><path fill="#1C4368" d="M71.5 70.4l-9.7-4c-.3-.3 .4-1.6 .2-2.1c.3-.3 5.6 1.7 6.3 2.1c.6 .3 3.4 1.7 3.7 2.1C72.5 69.1 71.6 69.8 71.5 70.4z"/><path fill="#1A4165" d="M38 64.3c-.2 .5 .4 1.9 .2 2.1l-9.7 4c-.1-.5-.7-1.3-.6-1.8c.1-.4 3.9-2.2 4.5-2.5C33.1 65.8 37.7 64 38 64.3z"/><path fill="#1E3E5A" d="M50.2 68.9l2.5 2.3c-.3 .7-.4 1.6-.8 2.2c.6 1.6-3.4 1.3-3.9 .7c-.3-.3-1.1-2.6-1.1-3C47.1 70.6 49.5 68.5 50.2 68.9z"/><path fill="#241E15" d="M50.2 68.9c-.5 0-2.8 2-2.9 2.2c-.1 .3 .9 2.8 1.1 3c.2 .2 2.6 .2 3 .1c.1 0 .5-.6 .6-.8c.4 .4 .4 1 .1 1.5c-.2 .3-.7 .2-.5 .9c0-.1-.2-.6-.2-.6c-.9 .2-1.8 .2-2.8 .2c-.1 0-.2 .4-.3 .5l-1.1-.3c0-.3 .2-.6 .1-.9c0-.2-1-2.3-1.1-2.3c-.9 .5-2 2.1-3.1 1.8c-.3-.1-.3-.3-.5-.4c.1-.1 .6-.9 .6-.9c0 0 .3 0 .5-.1C45.5 71.2 47.1 69.7 48.7 68.2C49 68.4 49.9 68.5 50.2 68.9z"/><path fill="#311B06" d="M41.3 42.6c3.2-.4 3.2 6.1 .3 6.1C38.6 48.7 38.5 43 41.3 42.6z"/><path fill="#2E1905" d="M58.2 42.6c2.7-.5 3.6 4.4 1.3 5.7C56.2 50.3 55 43.2 58.2 42.6z"/><path fill="#391E05" d="M45.7 52.8c.1 .1 .2 .5 .4 .7c2.2 2.5 5.8 2.5 8 0c.2-.3 .2-.7 .6-.8c1.2-.2 .5 1.1 .1 1.7c-1.8 2.2-4.8 2.7-7.4 1.6c-.9-.4-2.6-1.7-2.6-2.8C44.8 52.5 45.3 52.4 45.7 52.8z"/><path fill="#371E07" d="M58 37.9c1.2-.2 2.6 0 3.5 .8c.4 .4 1 1.3 .1 1.3c-.1 0-1.4-1-2.1-1.1c-.6-.1-1.9 .2-2.1 .1C56.7 38.9 57.2 38 58 37.9z"/><path fill="#321C06" d="M42.8 38.2c.3 .3 .2 .8-.2 .9c-.2 .1-1.3-.2-1.8-.1c-.3 0-.7 .1-1 .3c-.4 .2-1.5 1.4-1.8 .6C37.7 38.5 41.7 37.1 42.8 38.2z"/><path fill="#BC6E28" d="M48.8 49.9c-.2 .2-.8-.1-.9-.4c-.6-1.9 2.1-3.2 3.3-2.1c.3 .2 .5 .7 .1 .9c-.4 .2-1.4-.7-2.2 .1C48.7 49 48.9 49.9 48.8 49.9z"/><path fill="#C77A32" d="M70.7 44.6c.4-.1 1.4 .2 1.3 .7c0 .2-1 .3-1.4 .5c-.5 .2-1.2 1.3-1.6 1.2C68 46.7 69.7 44.8 70.7 44.6z"/><path fill="#C5762F" d="M28.9 44.6c.9-.1 2.8 1.4 2.3 2.2c-.4 .6-1.1-.7-1.6-.9c-.5-.2-1.3-.2-1.4-.3C27.7 45.1 28.5 44.7 28.9 44.6z"/><path fill="#FCBD29" d="M53.5 17.4c0 1.3-.2 2.6-.9 3.7c-.4 .6-2.1 2.4-2.9 2.2c-.7-.2-2.3-1.8-2.7-2.5c-.2-.5-.5-1.3-.6-1.8c-.4-2.1-.1-1.3 1.4-1.9c.7-.3 1.4-.7 1.9-1.2C51 16.5 52.1 17.4 53.5 17.4z"/><path fill="#143D62" d="M32.7 79.7l9.6 0c1 .3 .9 3.1 .7 3.9c-.3 1.1-4.2 2.1-5.4 2.2c-1.2 .1-4.4-.8-5.4-1.5C31.2 83.6 31.3 80 32.7 79.7z"/><path fill="#361E05" d="M62.1 74.1c1-.2 1.7 .9 2.6 1.1c1.4 .4 2.6-.2 2.8 1.9c.3 3.4-.5 6.7-3.8 8.1c-1.1 .5-1.4 .5-2.6 0c-3.3-1.4-4.2-4.7-3.8-8.1c.2-2.1 1.4-1.5 2.8-1.9C60.8 75 61.5 74.2 62.1 74.1z"/><circle fill="#F2F1F0" cx="41.6" cy="44.3" r=".9"/><circle fill="#F2F1F0" cx="58.6" cy="44.3" r=".9"/><path fill="#215D9E" d="M41.9 80.8v2.4c0 .3-2.8 1.2-3.2 1.3c-1 .2-1.8 .1-2.8-.1c-.4-.1-2.8-.8-3-1.1C32.6 83 32.6 80.8 32.9 80.8H41.9z"/><path fill="#FBD659" d="M62.2 75.3c.4-.1 1.3 .8 1.9 1c.8 .3 1.9 0 2 .8c.3 2.3 0 4.9-2 6.3c-1.4 1-2 1.1-3.4 .2c-2.1-1.4-2.6-4-2.3-6.3c.1-1 1.1-.6 1.9-.9C61 76.1 61.9 75.4 62.2 75.3z"/><path fill="#FCBE2A" d="M59.9 77.8c.7 .4 2.2-.9 2.4-.9c.2 0 .7 .5 1 .6c.3 .1 1.5 .4 1.5 .5c.2 .3-.2 2.7-.4 3.1c-.3 .7-1.6 1.9-2.4 1.7C60.3 82.3 59.6 79.4 59.9 77.8z"/></g></svg>