<svg xmlns="http://www.w3.org/2000/svg" viewBox="0 0 100 100"><g><path fill="#3B1C03" d="M13 66c-.4-1.2-.6-3.1-.4-4.4c.1-.7 .5-1.8 .6-2.2c0-.2-.3-.5-.4-.8c-.3-1.2 2-4.7 2.8-5.8c3.2-4.6 7.9-8.9 13.4-10.3l-1.4-.3c-2-.3-3.8-2.1-4-4.1c-.1-.7 .2-1.7 .2-2.1c0-.3-.8-1.5-1-2c-1.9-5 0-10.9 4.4-13.8c.2-.1 1-.3 .3-.5c-2.4-.7-1.1-2.6 1.2-2.3c.5 .1 .9 .3 1.3 .4c-.3-1.3 .9-4 2.5-3.5c1 .3 .2 1.9 .3 2.6c4-3.8 10.4-4.3 15.4-2.2c2.7 1.1 5.8 4.2 8.6 4.5c1.6 .2 5-.8 3.7 2l-1.1 1.2c2 1.4 3.5 3.7 3 6.3c-.3 1.5-1.6 .8-1.7 .9c.2 2.2-.4 4.1-1.8 5.8c-.6 .6-2.1 1.6-2.3 2.1c-.4 .7-1 2.9-1.1 3.8c-.1 .6-.2 1.2-.2 1.8c.2 .2 5.2-2 5.7-2.2c1.1-.7 1.9-2 3.3-2.6c2.2-1 5.4-.7 6.8 1.5c.3 .5 .8 1.9 .5 2.3c-.1 .5-.9 1.8-.9 .8l-.3-.3c.2-5.1-6.1-4.2-8.3-1c-2.2 1.3-4.5 2.3-6.9 3c-.7 1.7-1.7 3.2-3.1 4.4c-.1 .1-.4 2.5-.3 2.5c.8 .3 7.8-2.6 8.5-4.1c1-1.9 2.4-3.4 4-4.6c-.6-1.8 1.8-.9 1.3 .3c.3 .4-.1 .8-.5 .5l-.1 .4c-1 .7-1.8 1.6-2.5 2.6L61.8 46.5c.1 .7-.5 1.8-1.2 2c0 .1 0 .3 0 .4c0 .1-.1 .3-.1 .4c-2 3.1-4 6.1-6.8 8.6c-3.3 3.1-7.2 5.3-11.1 7.4l.6 1.1c1.5 .2 3 .7 4.1 1.6L47.2 68.4c.5 .3 0 .4-.5 .5l-.5 .1c-1.7-.8-3.5-1.3-5.4-1.5c-2.7-2.6-5-6-6.8-9.4L34.2 57.5c-.2-.6-.1-.9 .3-.9l.3 0c.5 1.1 1 2.2 1.7 3.2c1.9-2 3.6-4.2 5.1-6.5L42 53.2c.3-.2 .6 .1 .6 .5l.2-.3c1.1 .1 6.1 0 6.9-.6c.1-.1 .7-3 .6-3.1c-2.5 1.2-5.1 1.8-7.9 1.6c-1.3-.1-3-.2-3.9-1c-.6 .3-.9 .2-.9-.2l-.9-.1c-1.3-.5-2.5-1.2-3.5-2.1c-.2 .4-.5 .2-.6-.2l-.4-.1c-1.1-1.3-2-2.7-2.8-4.2c-6.4 2-12.1 7.7-15.1 13.8c-1.2 2.5 3.6 4.3 5.4 4.9L19.9 62.6c.4 .1 .3 .8-.2 .8l-.5 .2c-2-.5-3.8-1.5-5.3-2.7c-.4 1.8-.2 3.6 .3 5.3L14.1 66.6C14.2 67.6 12.4 66.5 13 66z"/><path fill="#3F1F01" d="M66.4 43.7l0-.2c.5-.3 .5-.7 .2-1.5c-.3-.6-1.2-2.3 .1-1.9c.8 .2 1.4 2.3 1.5 3c.5 .8 .4-2.7-.1-2.8c.1-.6 .5-.4 .9-.3c.8 .4 .9 1.8 1 2.6c.2-.2 .3-.3 .6-.1c0 0 .2 .2 .3 .2c0 0 .1-.6 .2-.8c.1-.2 .4-.1 .4-.2c2 1.1 3.2 3.1 4.3 5c2.2 3.7 3.8 7.5 6.6 10.9c3 3.7 9.4 6.7 10.7 11.4c.7 2.7-.6 3.4-2 5.2c-1 1.3-.1 1.7 .3 3.1c1.2 4.6-4.5 7.5-8.3 7.8c-2 .2-3.6-.2-5.5-.3c-4-.2-7.9 1.2-12 1.4c-5.5 .2-8.6-.8-13.7-2.1c-3.9-1-7.5-.3-11.4-1C38.1 82.9 33.4 81.5 35.3 78.5c.3-.4 .8 .2 .6 .6l.2 .2c0 2.2 4.5 2.7 6.1 2.8c3.1 0 6.3 .2 9.4 .7c5.4 1.5 10.7 2.9 16.4 1.9c4-.9 7.9-1.1 11.7-.8c.4 0 .8-.3 1-.6L81 83.3c-.1-.3 0-.4 .2-.3c0-.3 .2-.5 .4-.5c0-.3 .1-.5 .4-.6c.1 0 .3 0 .3 .1c.1 .6 .1 1.4-.1 2c3.3-.2 8.8-2.2 7.8-6.4c-1.4-2.4-.6-3.6 1.2-5.4c2.1-3.1-1.5-6.3-3.7-8.2c-3.4-2.6-6.6-5.3-8.7-9.2l-4.6-8.2c-.2-.5-2.6-3.7-2.9-3.6c-.4 .7-1.1 1.2-2 1c-.4 .5-.7 .6-1 .2c-.3 .6-.9 .3-1.4 0c-.4 .2-.9 0-1-.3C65.9 43.4 66 43.4 66.4 43.7z"/><path fill="#3B1C03" d="M29 63l.5 .1c2.3 3.4 5.4 6 8.6 8.4l.3 .5c.3 1.5 .9 3 2.2 3.9L40.6 76.4c.2 .1 .4 .1 .6 0c.3 .6-.5 .7-.9 .6c-.3 .3-.6 .2-1.1-.2l-1.6 1.3L37.3 77.9c0 .5-.9 1.2-1.4 1.2l-.6-.6c.2-.2 .4-.6 .6-.8c.3-.3 .9-.4 .9-.9c-1.4 .1-2.7-.2-3.9-.8c-1.2 4.6-6.3 5.1-10.2 4.1c-2.3-.6-4.4-1.8-6.4-3l-1 1.6c-2.6 2.1-6.9 1.1-8-2.1C6.2 73.3 7.6 67.5 11.2 66.3c1.7-.3 .7 .5-.3 .9l0 .5C6.2 71.7 7.5 81.5 14.9 77.9c-.1-.2 0-.5 .3-.6c-.4-.2-.2-.8 .2-.9c-.1 0-.2-.1-.2-.2c-.5-.7 .2-.7 .8-.3c0-.1 .1-.1 .2 0c.1-.4 .3-.5 .6-.3c.3 .2 .6 .5 .9 .9C24.2 80.9 36.2 80.8 30.1 69.9c-.7-.3 0-.7 .5-.8l-.3-.1c-.4-.4-2.9-3.6-2.9-3.8c0-.2 .1-.3 .2-.4c.8-.6 4 3.5 4.2 4.4c-.3 1.2 0 1.2 1.1 .1c-1.7-1.5-3.1-3.1-4.3-5L28.7 64C27.5 64 28.3 62.1 29 63z"/><path fill="#341E0B" d="M13 66c.2 .6 .3 1 1.1 .6l.4 .1c1.3 2.7 3.5 4.9 5.8 6.9l.2 .4c.8-2.1 8.1-5.9 9.8-5c.1 .1 .2 .1 .3 .2c0 .1-.6 .4-.5 .8l-.3 .3c-3 .3-5.9 2.1-7.9 4.2c1.7 1.4 .6 2.7-.8 .9c-.6 .2-1.2-.1-1.7-.6l-1.9-1.8c-.1 0-.6 2-.4 2.4L16.7 75.6c-.1 .2-.4 .3-.6 .3c-.5-.7-.6-.7-.2 0c-.3 0-.5-.3-.8 .3c-.7 .3-2-.4-.8-.3c-.1-.3 .2-.1 .2-.1c-.5-.3-1.1-.7-.9-1.3c-.4-.3-.4-.5-.1-.6L13.7 72.1c-.3-.5-.1-1.1 .4-1.7c.6-.4 .6-.9 0-1.4c-.5-.6-.7-1.2-.6-1.8c-.3-.1-.6-.3-.9-.5c-.2 .4-1.4 .9-1.7 .5c.4-.3 .7-.5 1.1-.8L11.2 66.3C11.8 66 12.3 65.8 13 66z"/><path fill="#EB6E03" d="M37 26.2c-.3 1.5-1 4.7-2.4 5.5c-1 .6-.6-.4-1-.7c-.4-.2-.8 1.9-.9 2.3c-.3 .8-.8 1.5-1.4 2.1c-.9-2-2.9-3-5-2.1c-.9 .4-1.1 .8-1.7 1.5c-.2 .2-.1 .2-.3 0c-.5-.6-1.1-3.1-1.2-3.9c-.3-3.6 1.3-7.6 4.2-9.8c.4-.3 2.1-1.1 2.1-1.2c.2-.6-1.2-.8-1.6-1c-.2-.1-.6-.2-.5-.4c1.1-.9 2.4 .3 3.5 .4c0-1.1-.1-2 .5-3c.2-.3 .9-1.2 .9-.3c0 .4-.7 2.7-.1 2.9c.2 0 2.3-1.7 2.8-2c4.9-2.9 10.2-2.5 15 .2c1.9 1 3.4 2.4 5.5 3.1c1.6 .5 2.7 .4 4.4 .3c0 .2 0 .4-.1 .6c-.3 .8-2.2 1.2-2.1 1.6c1.8 .9 4.2 3.3 4 5.5c-.2 2-1.3 0-1.8-.4c-.2-.1-.3-.2-.4 .1c-.1 .3 .3 .7 .3 1.1c.4 2.9-.4 5.3-2.7 7.1c.2-1.7 .4-3.3 .3-5c0-.4-.3-1.1-.3-1.4c0-.2 .3-.4 .3-.6c-.1-.3-.8-.2-1.1-.3c-.9-.2-2-.7-2.7-1.3c-.4 .1-.9-.3-1.3-.9c-.2-.4-.3-.3-.4 .3c.6 1.4 .4 3.5-1.8 3.4c-2.2-.2-3.4-1.8-4.7-3.4c-.1 4.5-5.1 1.6-6.8-.2L38.5 25.9c-.4 0-.8-.4-1.1-1C37.4 25.6 37.3 26.1 37 26.2z"/><path fill="#FCC07F" d="M37.9 26.1l.4 .1c.8 1.6 5.1 4.1 6.5 2.4c.4-1 .8-1.3 1.2-.9c1.4 2.3 6 4.2 6.2 .1L52.5 27.5c.1-.5 .5-.3 .5 .2c.5 .3 .9 .9 1.5 1.2c.7 .3 1.7 .2 1.8 .9c.8 3.9-.7 6.5-1.6 10c-.5 1.9-.5 3.4-1.3 5.2c-.5 .1-.5-.3-.2-1.1c-2.1-2.7-5 2.5-.7 1.9L52.8 46c-4.3 6.4-16.3 4.8-20.9-.5c-.9-1.1-2-2.8-2-4.2c-3.1 .8-5.8-1.4-5.3-4.6c.4-2.7 3.9-4 5.6-1.5c.6 .8 .3 1.7 1.5 .9c1.2-.8 1.8-3.1 2-3.2c.1-.1 .5 .2 1.1-.2C36.6 31.5 37.2 28.9 37.6 27l.1-.9L37.9 26.1z"/><path fill="#2480CF" d="M19.9 62.6c-1.9-.5-4.1-1.5-5.4-2.9c-.9-1-1-1.3-.5-2.5c1.7-3.9 5.9-8.5 9.3-11c.9-.6 5.5-3.4 6.3-2.9c.1 0 .5 1.2 .7 1.5c.8 1.2 1.6 1.7 2.2 3.1l.3 .2c1 2.3 3.4 3.4 5.7 2.3c3.1 .9 5.8 1.1 8.9 .3c1.2-.3 2.2-.9 3.3-1.3c-.3 .6-.4 3.6-.9 3.8c-.3 .2-2.8 .6-3.4 .6c-.9 .1-3 .1-3.9 0c-.3-.3-.2-.7 .2-1.4c-.2 .6-.5 .9-.8 .9c-.6 1-4.7 6.7-5.5 6.9C36.1 60.2 34.8 57.1 34.5 56.6c-.4 0-.4-.2 0-.3c.4-.9 .2-1.6-.2-2.5l-1-2.2L33.4 51.2l-.3 0c-.8-1.7-1.4-2.7-.1 0c-.1 .2-.2 .4-.1 .6c.6 .2 1.3 2.2 1.3 2.8L34 55.1l-.4 .3c-2.7 .2-5.5 1.5-7.2 3.6L26.1 58.9c.3 .4-.3 .7-.6 .5c-.7-.4-1.8-5.3-2.1-6.3c.1 1.6 1 6.1 2.6 6.9c.4 0 .6 .1 .7 .3c.5 0 1.1 1.1 .8 1.5c.5 0 1.1 1.3 .8 1.6c-1 .6-7.1 .2-8-.5C20.1 62.8 20 62.7 19.9 62.6z"/><path fill="#FCC17D" d="M27.9 61c-.6-.1-1.2-1.5-1.2-2.1c0-1 5.4-3.8 6.5-3.5c.6 .2 1.1 1.4 .9 2c.9 1.8 1.6 3.1 2.8 4.8c.6 .9 3.3 4.4 4 4.9c.4 .2 2.4 .3 3.2 .5c.9 .2 1.9 .6 2.6 1.1c.7 1.3-1.3 1.3-2.2 .9l1.4 2c1.9 2.6-.1 3.6-1.8 1.1c2.5 2.6 .3 3.8-1.6 1.3c2.1 2 .3 3.4-1.4 1.3l.4 .7c.1 .6-.2 .7-.9 .3c-1.1-.7-1.8-1.6-2.3-2.9c-.2-.5-.2-1.2-.5-1.7c-.4-.5-2.7-2-3.5-2.7C32.7 67.6 30.3 65 29 63c-.5 0-1-.7-.8-1.2C28 61.6 27.9 61.3 27.9 61z"/><path fill="#0E3B6D" d="M19.8 63.3l.3-.2c2.5 .9 5.3 .7 7.9 .6L28.7 64c1.4 2 3 3.8 4.8 5.4c-.3 .2-1.5 1.2-1.8 1.2c-.4-.1-.1-.8-.1-1.1c-.1-.7-2.6-3.7-3.3-4.1c-.2-.1-.5-.3-.7-.1c.4 .6 3 3.4 2.9 3.9c-3.9 .1-7.5 2.2-10 5.1c-1-1-2.2-1.9-3.1-3C16.3 70.1 14.7 68 14.1 66.6c-.7-1.8-.9-4.6-.2-6.4C15.5 61.9 17.5 62.7 19.8 63.3z"/><path fill="#FCC17F" d="M70.4 42.6c-.2 0-.5 .6-.9 .5c.1-1 0-2.7-1.2-2.9c.3 .8 .9 2.3 .4 3.1c-.1 .1-.4 .3-.6 .3c-.2 0-.4-1.7-.6-2.1c-.1-.2-.9-1.3-1.1-1.1c0 .8 .7 1.3 .8 2.1c.1 1 .2 1.1-.6 1.3c-.4 .1-1.3-.4-1.1-.9c-.2-.2-.6-1.3-1.1-1c-.4 .2 .2 .6 .1 .8c-.1 .1-.7 .4-.9 .6c-.3 .3-.8 .7-1.1 1.1c-1.7 1.9-1.7 3.3-4.1 4.7c-1.6 .9-5 2.4-6.8 2.5c-.3 0-.2 0-.2-.2c0-.4 .2-2.4 .3-2.7c0-.1 1.6-1.5 1.9-2c.4-.6 1-2.1 1.2-2.4c.3-.4 2.3-.8 2.9-1.1c1-.4 2.6-1 3.5-1.6c1.2-.8 1.9-2 3.5-2.7C67.6 37.6 71.1 39.1 70.4 42.6z"/><path fill="#462401" d="M66.4 43.7c-.1 0-.4-.1-.3 .2c.2 .1 .7 .1 .6 .3l-.6 .2c.3 0 .5 0 .8 0c.1 0 .1 .1 0 .2c0 .1-.1 .3-.2 .3c-.4 .1-.4-.2-.4-.2c.3 2 .6 4.4 .7 6.4L66.9 52c.6 .7 .8 1.9 .5 2.8c.2 .3 .4 .6 .5 .9c1.5 5.3 2.9 9.6 5.8 14.5c1.6 2.7 3.5 5.4 5.8 7.5L79.4 78.1c.8 .3 1.5 1.1 1.7 2c.6 0 1.2 1.5 .8 1.8l-.2 1.4l-.3-.5L81.1 83l-.2-.1c-.5-1.7-1.4-3.1-2.8-4.5C75.7 76.1 73.8 73.4 72.4 70.6c-.2 .2-.5 .1-.7 0l-.9-2.8c-.7-.5-1.1-1-.9-1.8c-3-5.6-4.4-12.1-4.8-18.5l-.2 .1c-3.7 8.8-9 16.9-17 22.1c-.4 .6-.9 1-1.5 1.2c1 1.3 2.1 3.9-.3 4.2c-.1 .9-.9 1.4-1.8 1.2c-.4 .9-1.2 1.1-2.1 .8c-.5 .4-1.6 .9-1.8 0c.4 0 .3 0 .2-.3l.6 0l0-.2c-.2 0-.3-.1-.5-.2c.2 0 .7 .2 .6-.2c0-.1-1.4-1.9-.7-1.9c.6 .5 1.3 2 2.3 1.8c1.4-.2-1.3-2.2-.8-2.6c1 0 1.7 1.9 2.6 1.7c1.2-.3-1-2.3-1.2-2.7c-.1-.3 0-.3 .2-.5c.5 0 2.1 2.8 2.8 1.8c.7-1-2.8-4.2-2.4-4.6c.9 .3 2.6 1.1 2.8-.3c.1-.5-.6-.5-.8-.9c.5-.2 1 .5 1.2 .6c.1 0 .1-.2 .1-.2c1.9-1.3 3.8-2.8 5.4-4.6L53.2 63.7l0-.5l1.8-2.1L55.5 61l.1-.6l1.9-2.6L58.1 57.5c.2-1.1 1.1-2.6 2-3.2c.3-1.5 1.3-3.3 2.5-4.4c-.1-.9 .5-2.2 1.2-2.8l-.2-.4c.5-.9 1-1.8 1.4-2.8c-.3-.2-.3-.5-.1-.7c.2-.1 .4-.2 .5-.5C65.6 43.1 66.1 43.4 66.4 43.7z"/><path fill="#FCCC2C" d="M62.6 49.8c-.8 1.5-1.6 3-2.5 4.4c-1.4-.6-3.4 1-2.5 2.5c.3 .2 .5 .4 .5 .7c-.9 1.3-1.6 2.3-2.6 3.5l-.4 0c-1.4-1.7-4.1 1.1-2 2.2L53.2 63.7c-1 1.1-2 2.1-3.1 3.1c-.5 .4-1.9 1.5-2.4 1.7c-.3 .1-.3 0-.4 0c-.6-.7-1.9-1.1-2.8-1.4c-.4-.1-1.3-.2-1.5-.3c-.1 0-.9-1.4-.8-1.5c4.6-2.5 9-5 12.7-8.9C57.1 53.9 58.8 51.2 60.6 48.5c.3 .2 .5 .5 .7 1C61.9 49.5 62.3 49.6 62.6 49.8z"/><path fill="#382412" d="M34 55.1c.3 .2 .6 1 .5 1.2c0 .1 0 .2 0 .3c0 .2-.3 .7-.3 .9c-.1-.2-.8-1.7-.9-1.7c-1.2-.3-5.5 2-6.3 3.2c.2 .7 .6 1.4 .9 2c.5 1.3 .3 1.5-.5 .8c-.3-.6-.5-.9-.8-1.5c-.5 0-.7-.9-.6-1.4c.4-.3 .7-.8 1.1-1.1C29 56.2 31.6 55 34 55.1z"/><path fill="#FAA76C" d="M53.4 44.9c-.2 .5-.3 .7-.6 1.1c-1-.1-2 .4-2.6-.7c-.8-1.6 1.1-3.1 2.6-2.4c.1 0 .7 .7 .7 .8C53.7 44.2 53 44.5 53.4 44.9z"/><path fill="#2C1A0A" d="M29 63c-.4-.3-.7 .3-.6 .7c0 .1 .3 .2 .3 .3c-2.5 .2-5.1 .2-7.5-.2c-.5-.1-.9-.3-1.3-.4l.2-.8c2.7 .7 5.4 .9 8.1 .6c.1-.1-.5-1.2-.6-1.4l.6 .2c.2-.2-.6-.8-.2-.9C28.2 61.6 28.7 62.5 29 63z"/><path fill="#FBE5A6" d="M63.8 47.1c-.4 .9-.8 1.8-1.2 2.8c-1.4 .1-1.7-.1-2-1.4c.4-.6 .8-1.4 1.2-2C62.4 45.8 64 46.2 63.8 47.1z"/><path fill="#F9CB30" d="M63.8 47.1c-.6-.7-1.1-.7-2-.6c1-1.5 1.6-2.2 3.1-3.2c.1 .2 .5 .4 .4 .7C65.3 44.5 64.1 46.4 63.8 47.1z"/><path fill="#20405A" d="M33.1 48l.5 .3c1.1 1.2 2.2 1.9 4 1.8c.2 .1 .6 .1 .9 .2c-1.8 1.8-4.9 .1-5.9-1.9c-.1-.2-.1-.5-.1-.6C32.7 47.8 33 48 33.1 48z"/><path fill="#EFB777" d="M37.6 50.2c-1.9 .8-3.5-.7-4.4-2.1c.8 .1 .9 .4 1.6 .8C35.6 49.2 36.7 49.9 37.6 50.2z"/><path fill="#103A5B" d="M40.8 64.6c-1.6 .3-2.2-1.6-3.1-2.6c.4-.3 2.5 1.8 2.8 2.1C40.7 64.3 40.9 64.3 40.8 64.6z"/><path fill="#804304" d="M37 26.2c.1-.4 0-1.7 .4-1.8L38.5 25.9c0 .5-.3 .5-.6 .2c-.1 .1-.3 .7-.3 .9l0-.9c-.3-.1-.1 .2-.2 .5L37 26.2z"/><path fill="#793B01" d="M53.4 27.1l-.5 .5c-.3-.2-.4-.1-.5-.2c-.5 .3-.7-.1-.7-1.1L51.7 26.5l.1-1.1C52.3 25.9 52.9 26.7 53.4 27.1z"/><path fill="#254160" d="M42.6 53.7c-.2 0-.5-.2-.6-.5c.2-.3 .6-1.5 1-1.4C43.6 52 42.6 53.4 42.6 53.7z"/><path fill="#ECBA6E" d="M42 66.6c-.5 .4-1.3-.9-1.5-1.2C41.1 64.9 42.2 66.4 42 66.6z"/><path fill="#FCCB2A" d="M68.3 44.3c.5 0 .7-.4 .9-.5c.2-.1 .4 .1 .7 0c.9-.2 1.2-1 1.3-1.1c.8-.1 2.7 2.8 3.1 3.5c2.9 4.6 4.8 9.9 8.8 13.8c2.6 2.6 10.1 6.8 9 11.3c-.3 1.4-2.4 2.7-2.5 3.9c-.1 .7 .8 1.9 .9 2.9c.4 4.3-5.3 6.1-8.7 6.2c0-.3 .2-.4 .3-.7c.1-.3 .1-1.4 0-1.8c-.1-.5-.5-1.4-.8-1.8c-.2-.9-.8-1.7-1.7-2c-.6-.6-1.4-1.3-1.9-2C72.4 70 69 62.6 67.3 54.8l.3-.2C71.4 55.5 69.5 49.9 66.9 52c-.4-2.5-.7-5-.8-7.5c.2 0 .5 0 .8 0c.9-.2 1.2 .7 1.5 1.5c.3 1.1 .7 2.3 1.1 3.4l-1.5-4.7L68.3 44.3z"/><path fill="#E8A30A" d="M69.9 66c-.5 .2-1-.6-1.1-1.1c-.4 .2-1.2-.5-1.1-.9l-.5 0c-10.7-6.4-21.5 9.4-11.3 17c7.5 5.6 17.7-.9 16.2-10L72.4 70.6c.7 .7 1.3 2 1.9 2.8c1.8 2.5 4.3 4.7 5.9 7.1c.5 .7 1 1.6 .9 2.5c0 .2-.1 .2-.2 .3c-.2 .1-.4 .1-.6-.3c-2.5-.8-5-1.6-7.4-2.5c-.1 1.3-1 1.9-2.1 2.4c-3.8 1.8-10.2 1.7-14.3 .7c-2-.5-5.1-1.6-5.2-3.9c-2.9 .7-5.8 .9-8.6 .8c-1.1-.1-1.6-.4-1.4-.9c.3-.4 .2-.4-.3-.2c-.6 .7-2.8-.1-3.4-.6c-.3-.3-.7-.7-.3-1.1c.3-.2 1.8-1.5 1.9-1.5c.1 0 .7 .5 1.1 .6c1.3 .4 1-.1 1.6-.3c.4-.1 .8 .3 1.5-.1c.5-.3 .4-.7 .6-.8c.1-.1 1.1 .5 1.6-.5c.1-.2 .1-.6 .1-.6c.1-.1 .8 .1 1.2-.4c.4-.5 .3-1.1 .1-1.6c-.3-.8-.9-1.4-1.2-2.1c1.1 0 1.3-.8 1.9-1.2c3.4-2.6 5.6-4 8.4-7.4c3.8-4.7 6.9-10.3 9.1-15.9c.3 0 .1 .2 .2 .4c.3 6.5 1.8 13 4.5 18.9C69.9 65.5 70.2 65.9 69.9 66z"/><path fill="#FCC51B" d="M41 79.6c.3-.3 .4-.3 .3 .2c0 0 .1 .2 .4 .3c3 1 7.1-.3 10.2-.6c-.5 1.3 .4 2 1.4 2.6c3.9 2.4 11.4 2.5 15.7 1.2c1.3-.4 4.2-1.3 3.6-3.1c.4-.3 7.1 2.5 8.1 2.5L81 83.3c-.6 1.6-2.3 .8-3.6 .8c-4.6-.1-9 1.4-13.8 1.4c-4.8 0-7.6-1.1-12-2.2c-4-.9-8-.2-11.9-1.1C38.3 81.8 35.2 81 35.9 79.1c.2-.7 .9-.8 1.4-1.2c.2 1.1 1.6 1.4 2.6 1.6C40.2 79.6 40.6 79.5 41 79.6z"/><path fill="#F8B31A" d="M68.3 44.3l1.9 6c.5 .5 .8 1 .7 1.8c-1.1 0-.8-1.2-1-1.7c-.1-.3-.5-.7-.7-1.1c-.6-1.2-.9-3.1-1.5-4.2c-.1-.2-.6-.6-.8-.7v-.2C67.4 44.3 67.8 44.3 68.3 44.3z"/><path fill="#FCC27B" d="M30.1 69.9c.2 0 .2 0 .3 .1c.9 1 1.8 4 1.7 5.3c-.6 6.4-9.8 4.1-13.5 2c-.9-.5-1.5-.7-1.8-1.8c-.3-1.2 .2-1.9 .5-3.1c.2-.1 .3 .1 .4 .2c.7 .5 2.3 2.3 2.9 2.4c.2 0 .4-.1 .7-.1c.3 .1 .7 .9 1.2 .8c.3 0 .2-.2 .1-.4c-.2-.3-1-1-.9-1.2C23.2 72.4 27.5 69.8 30.1 69.9z"/><path fill="#0574C2" d="M13.7 72.1l-.1 1.9l-.2 .1c-.3-.2-1.5-.6-1.6 0C11.6 75.3 14.4 76.4 15.3 76.4c.1 .2-.1 .7-.2 .9c-1 .9-3.4 .9-4.6 .1c-2.7-2-1-7.4 1.2-9.4c.4-.4 1.2-1.1 1.7-.8c.5 .8 .8 1.8 1.5 2.5C14.3 70.4 13.9 71.2 13.7 72.1z"/><path fill="#FCC17D" d="M38.6 75.8c-1.7 .7-3.8 .1-5.5-.5c-.2-1.4-.5-2.7-1.1-4l2.1-1.2c.3 .8 2.9 2 3.1 2.4c.1 .2 .1 .9 .2 1.3C37.8 74.5 38.4 75 38.6 75.8z"/><path fill="#F7F1E9" d="M12.6 66.7c.3 0 .5 .2 .6 .4c-2.8 1.4-4.5 5.2-3.8 8.2c.6 3 2.8 2.8 5.2 2.4c.1 0 .2 .1 .3 .2c-1.7 2.1-5.7 1-6.7-1.5C7.1 73.3 8.5 69.3 10.9 67.2C11.5 67.1 12 66.7 12.6 66.7z"/><path fill="#0E528A" d="M12.6 66.7c.2 0 .7 0 .8 .1c.2 .1 .1 .3 .1 .3c-2.7 1.2-4.2 4.6-4 7.4C9.8 78 12.4 78.1 15.2 77.3c0 .1 0 .2 0 .4c-.1 .2-.2 .2-.3 .3l-1.3 .3c-6.9 .9-5.1-9.6-.5-11.2L12.6 66.7z"/><path fill="#FAF5EE" d="M16.1 75.9c-.1 0-.1 0-.2 0c-2-1.3-2.3-3.8-.7-5.5c.2 0 1.4 1.2 1.4 1.5c0 .2-.7 1.8-.7 2.4C15.9 74.9 15.9 75.4 16.1 75.9z"/><path fill="#175079" d="M13.7 74.5l-.1 .2c-1.4-.5-1.6-.5-.7 .2C13.5 75.1 14.1 75.5 14.4 75.9c-.1 0-.2 0-.3 0l0 .2c.3 .1 .8 .1 1.1 .2c.1 0 .1 .1 .2 .2c-1.1 .1-1.9 0-2.8-.7c-1.6-1.2-1-2.8 .9-1.8c-.1-.7 0-1.2 .2-1.8V74.5z"/><path fill="#F0EEE9" d="M13.7 74.5c.5 .3 .6 1 1.1 1.3c0 .1-.2 .1-.3 .1c-.6-.3-2.1-.8-2.4-1.4C11.6 73.4 13.3 74.2 13.7 74.5z"/><path fill="#411D03" d="M51.7 26.5c0-.2-.1-.5 .2-.5l.2 1.2c.3-.3 .3 .1 .5 .2c0 4.1-3.5 3.5-5.8 1.5c-.3-.3-.8-1.1-1-1.2c-.3-.1-.3 .6-.5 .8C43.5 30.8 38.8 28 37.9 26.1c.1-.1 .5 0 .6-.2c1.1 1.2 5 4 6.2 2c.5-.7-.1-1.6 .6-1.8c1.1 1.5 2.5 3.4 4.6 3.5C52 29.7 51.6 28 51.7 26.5z"/><path fill="#FBFAFA" d="M42.5 37c.2 .6 .4 1.4-.2 1.8l-.3-.2c-.5-2.3-3.5 .2-2.7 1.7L39.1 40.6c-.1 .3-.5 0-.6-.1c-.7-.5-1-1.3-.9-2.2C37.2 35.4 42 33.4 42.5 37z"/><path fill="#FBAA6F" d="M36 40.2c1.9-.1 3.4 2.3 1.5 3.5c-1.4 .9-3.5-.3-3.3-2.1C34.3 40.9 35.3 40.3 36 40.2z"/><path fill="#311103" d="M46.6 45.6c-.3 1.2-1.7 2.5-2.8 2.9c-3.1 1.1-5.1-1.7-3.9-4.5c.8-2 1.6-.4 2.7 .3C43.8 45.1 45.2 45.5 46.6 45.6z"/><path fill="#311602" d="M42.3 38.8c.1 1.1-1.1 2.7-2.3 2.4c-.2 0-.8-.5-.9-.6C37.8 38.4 42.1 35.8 42.3 38.8z"/><path fill="#FBFAFA" d="M53.1 40c-.1 .4-.5 1.4-.5 .6l-.3-.3c.1-2.6-3.4-.6-2.6 1.2L49.5 41.9c0 0-.1 .2-.2 0c-1-1.2-.6-3.3 .5-4.3C51.6 35.2 54.2 37.7 53.1 40z"/><path fill="#2E1503" d="M52.6 40.6c-.2 1.1-1.4 2.2-2.5 1.7c-.3-.1-.3-.3-.5-.5C48.4 39.1 53.2 37.3 52.6 40.6z"/><path fill="#34170A" d="M42.5 37c-.9-2.9-4.7-1.4-4.9 1.4c-.4-.6 .1-1.5 .3-2c1-1.8 3.9-2.2 4.6-.1C42.6 36.4 42.8 36.8 42.5 37z"/><path fill="#3A1B07" d="M40.1 30.7c.7-.1 2.2 0 1.7 1c-.8-.1-1.6-.2-2.3 .1c-.5 .2-.9 .9-1.3 .3C38.5 31.4 39.4 30.8 40.1 30.7z"/><path fill="#381E11" d="M53.1 40c.5-2.4-1.3-4.2-3.2-2.5c-.4-.2 .2-.6 .3-.7c2-1.5 3.8 .3 3.3 2.5C53.4 39.6 53.4 39.9 53.1 40z"/><path fill="#371807" d="M46.6 43.9l1-.9c.7-1.3-.6-1.4-1.6-1.4C48.4 39.5 49.8 44 46.6 43.9z"/><path fill="#3C1B07" d="M52.4 32.1c1-.2 2.6 1.1 2.3 2c-.1 .6-.9-.6-1.1-.8c-.8-.7-1.4-.3-1.8-.6C51.5 32.5 52.2 32.1 52.4 32.1z"/><path fill="#442108" d="M29.1 38.2c-.7-.2-.6-1-1.2-1.5c-.3-.3-1.3-.4-.8-.8C28 35.4 29.6 37.2 29.1 38.2z"/><path fill="#284054" d="M26.7 60.3c-1.4 .2-1.9-1-2.4-2.1c-.7-1.6-1.4-4.1-1.2-5.8c0-.2 .1-.5 .3-.2c.2 .2 1 4 1.3 4.8c.3 .8 .7 1.5 .9 2.3c0 0 .4-.2 .5-.3C26.5 59.2 26.5 59.8 26.7 60.3z"/><path fill="#303944" d="M34.5 56.3c-.1-.3-.4-.2-.5-.4c0-.1 0-.5 0-.8c-.1-1.1-.6-2.2-1.1-3.2c-.2-.6-.1-1.1 .5-.6c.4 .8 1.5 3.2 1.6 4C35.1 55.6 34.9 56.1 34.5 56.3z"/><path fill="#1E4F7B" d="M33.4 51.2c-.4 .1-.6 .2-.5 .6c-.5-1.2-1.2-2.4-1.7-3.7C31.8 47.6 33.3 51 33.4 51.2z"/><path fill="#3B1600" d="M67.8 64c.4 .2-.1 .9-.5 .7l-.5 0c-8.2-4.5-17.1 4.3-12.8 12.6l0 .5c3.1 3.6 7.3 5.5 11.9 3.6c4.6-1.9 6.2-6.4 5.7-11.1l-.4-.3c-.5-1.5-1.4-2.9-2.5-4l-.1-.5c-.2-.3 .1-.7 .5-.6c.4 .4 .7 .6 1.1 1.1c.1 .1 .3 .1 .3 .3c0 .3-.2 .5-.1 .8c.2 .3 .8 .3 .9 .6c.2 .6 .2 2 .6 2.6c.1 .2 .3-.1 .7 .3c2 9.6-8.9 16.6-16.8 10.6C45.3 73.1 56.7 56.8 67.8 64z"/><path fill="#FCE8AE" d="M67.3 54.8c-.2-.9-.3-1.8-.5-2.8c-.1-.4 .3-.6 .6-.7C70.7 50.6 71.2 56.2 67.3 54.8z"/><path fill="#FCE39C" d="M55.5 61c-.8 1-1.4 1.7-2.3 2.6C50.3 62.5 53.8 58.5 55.5 61z"/><path fill="#FCE082" d="M60.1 54.3c-.7 1.1-1.3 2.1-2 3.2c-1.3-.5-1.3-1.6-.6-2.7C58 54.2 59.6 53.3 60.1 54.3z"/><path fill="#F6E5B0" d="M81.1 80.1c-.3-.5-1.2-1.5-1.7-2c.1-.2 .6 .1 .7 .1C80.9 78.7 81.3 79.2 81.1 80.1z"/><path fill="#FDDF89" d="M47.4 63.2c2.5-.6 1.2 3.2-.9 2.5C45.1 65.4 46.5 63.4 47.4 63.2z"/><path fill="#FDEAB4" d="M78.2 68.1c1.2-.3 2.6 .4 2.9 1.6c.6 2.6-3.6 2.4-3.9 0C77.1 69.1 77.4 68.3 78.2 68.1z"/><path fill="#FDE9B5" d="M84.9 74.9c2.9-.6 3.9 3 1.8 3.5C84.1 78.9 82.9 75.3 84.9 74.9z"/><path fill="#FDE9B2" d="M72 59.1c2.6-.6 3.8 3.2 1.6 3.6C71.3 63.1 70 59.5 72 59.1z"/><path fill="#FDEAB4" d="M80.8 61.1c1.6-.3 3.6 2 2.2 3.3C80.9 66.2 77.9 61.6 80.8 61.1z"/><path fill="#FCE9B3" d="M88.3 66.3c2.6-.4 3.5 3.5 .9 3.5C86.8 69.8 86.1 66.6 88.3 66.3z"/><path fill="#FDEAB4" d="M75.6 53.4c2.8-.6 3.6 3.3 1.5 3.5C74.5 57.2 73.7 53.8 75.6 53.4z"/><path fill="#FCE8B1" d="M71.1 46c2-.4 3.5 2.5 1.6 3.5C70.5 50.6 68.7 46.5 71.1 46z"/><path fill="#955A00" d="M41 79.6c0-.5 .6-.6 1-.8c2-.9 4.6-1.3 6.7-1.4c.1 .4-.7 .5-.9 .5c-1.2 .3-2.5 .6-3.7 .9c-.9 .2-1.9 .5-2.7 .9C41.1 79.7 41 79.6 41 79.6z"/><path fill="#462401" d="M68.9 64.9c-.2 0 .1 .4 0 .4c0 0-.4 0-.5 .2c-.6 .1-1-.3-1.1-.8L67.8 64C68.2 64.2 68.5 64.6 68.9 64.9z"/><path fill="#E95944" d="M40.2 44.9c1.5 .2 3.1 1.4 3 3.1C41.1 48.7 39.9 46.9 40.2 44.9z"/><path fill="#7E200E" d="M45.9 46c0 .5-1.9 2.1-2.1 1.8c-.3-1.9-1.5-2.9-3.3-3.2l.2-1.1l2.8 1.9C44.2 45.7 45 46 45.9 46z"/><path fill="#E42E20" d="M67.3 64.7c.4 .2 .8 .5 1.1 .8c1.5 1.3 2.6 3 3.1 4.9c.2 9.4-11 14.4-17.6 7.5c-2.3-3.8-1.7-8.7 1.5-11.9S63.5 62.3 67.3 64.7z"/><path fill="#CE1012" d="M53.9 77.8c1 .4 1.6 1.1 2.5 1.6c2.3 1.3 5.1 1.6 7.7 .9c4.4-1.2 6.9-5.6 7.4-10c1.2 4.6-1.1 9.5-5.6 11.4C61.5 83.6 56.4 81.9 53.9 77.8z"/><path fill="#FB8880" d="M59.3 65.2c4.6-.7-.7 6.1-2.9 4.5C54.8 68.4 57.6 65.5 59.3 65.2z"/></g></svg>