<svg xmlns="http://www.w3.org/2000/svg" viewBox="0 0 100 100"><g><path fill="#482F1B" d="M60.2 59.9c-3.3 2-6.6 3.9-10.3 4.9c-3.8 1.1-8.3 1.5-12.3 1.2c-.8-.1-4.3-1-4.6-.9c-.2 .1-.4 .6-.4 .8c.1 .2 1.2 .7 1.6 1.7c1.6 4.5-7.7 5.3-9.2 2.9c-1-1.5 .4-3.5 1.7-4.2c.4-.2 1.2-.4 1.4-.6c.4-.4 .5-2 1-2.5c-2.8-2.3-3.8-5.7-3.7-9.3l-4.8-2.3c-2.3 1.8-5 2.6-7.9 1.8c-5.1-1.5-6.8-7.4-4.3-11.9c4.3-7.5 18.7-7.4 26.3-8.5c1.9-2.4 3.9-4.4 6.8-5.6c.8-.3 2.8-.7 3.2-.9c.3-.2 1.4-1.8 2-2.3c3.5-2.9 10.5-3.2 12.5 1.6c.2 .4 .5 1.9 .7 2.1c.2 .1 .7 .2 1 .4c1 .5 2 1.1 2.9 1.7c.3 .2 .7 .8 1 1c1 .5 3 .6 4.4 1.2c.8 .3 2.4 1.6 2.9 1.7c1.6 .4 4.1 .5 5.9 .8c7.1 1.3 16.6 3.3 15.4 12.7c-.8 6.7-10.1 12-15 6.1c-.3-.3-.6-1.2-.9-1.2c-1.5 .4-3 .8-4.5 1.2c-1.6 .3-4.9 .7-6.2 1.2c-.1 .1-2.2 1.8-2.3 1.9c-.1 .2-.3 .3-.2 .5l2.5 5.9c.3 .3 2.2-.2 3.3 1.2c1.5 1.8 .3 3.7-1.5 4.6c-2.3 1.2-8.2 2.4-7.5-1.8c.2-1.2 1.6-2.4 1.6-2.5C62.7 64 60.3 60.8 60.2 59.9z"/><path fill="#F8E4C0" d="M61.4 30.3c0 .2-.1 .4 0 .5c2 4.8 2.8 7.8-.1 12.5c-3.1 5.1-9.6 10.5-15.5 11.6c-4 .7-12.4 1.2-15.7-1.3c-1.3-1-1.5-3.6-1.1-5.1c0 0 .1 .2-.1 0c.9-1.9 2-3.6 2.8-5.4c2.2-4.9 3.5-10.3 8.6-13.3C45.3 26.8 56.3 27.4 61.4 30.3z"/><path fill="#EBD2A9" d="M61.4 30.3c3.6 2.1 6.2 5.9 4.5 10.1c-2.2 5.7-11 14.3-16.7 16.4c-4.6 1.6-12 1.6-16.8 .8c-1.6-.3-5.2-1.1-5.5-3C26.7 52.9 28.1 50.1 28.8 48.5c.4-.3 .3-.1 .3 .2c.1 2.2-.5 3.9 1.9 5.2c3.6 1.9 12.6 1.5 16.5 .4c6-1.8 15.5-10.2 15.5-17c0-2.4-1.5-4.6-2-6.9L61.4 30.3z"/><path fill="#F0D8B1" d="M91.7 44.4c-2.9-3.4-8.7-3.4-12-.6c-.5 .4-1.3 1.6-1.7 1.7c-.6 .1-1.5 0-2.1 0c-.4 0-.7 .2-1.1 .2c-2.8 .1-5.6-.1-8.4 0l5.5-10.1c2.8 .2 5.6 .7 8.3 1.3C84.7 37.8 90.8 39.2 91.7 44.4z"/><path fill="#7E8990" d="M50.2 57.6c.7 .6 .2 2.1-.2 2.8C48.8 62.6 46 63.6 43.8 64.3c-3.1 .2-6.3 .3-9.3-.4c-3.9-.9-6.8-3.1-7.3-7.3c1.2 .7 2.3 1.3 3.7 1.6C36.1 59.6 45.1 59.7 50.2 57.6z"/><path fill="#F3DCB6" d="M29.1 35.2l.7 0c-.2 .4-.3 .8-.4 1.2c-2.5 3-5.6 5.5-8.8 7.9c1 0 1.9 .7 .4 .6c-1.9 0-1.3-1-2.3-2.2c-1.3-1.7-3.5-2.8-5.7-2.7c-.3 0-1.7 .5-1.3 0c.1-.1 1.2-.8 1.4-1C16.2 37.1 25.4 35.1 29.1 35.2z"/><path fill="#6B767E" d="M64.9 54.2c-5.9 5.3-13 9.5-21.1 10.1c.3-.5 1.2-.6 1.8-.9C48.1 62.3 50.6 60.7 50.2 57.6c.1 0 .2-.1 .3-.2c1-.2 1 1.2 .9 2c4.2-1.4 8.5-4.3 10.9-8.2L62.8 51.1l.3 0c.3 1.2 1 1.9 1.9 2.7L64.9 54.2z"/><path fill="#E74723" d="M77.8 46.2l-.5 1.5c-4.5 .9-9.1 1.3-13.6 1.9c-.1-.1-.5-2.7-.4-2.9c.1-.3 1.7-2.3 2-2.9c1.7-2.8 2.9-5.2 2-8.5c-.3-.9-.7-1.6-1.1-2.5c1.7 .5 3.6 1 4.9 2.4c-1.6 3.4-4.1 6.6-5.5 10.1c-.4 .9-.4 1.1 .7 1.2c2.6 .2 6.5 .1 9.2 0C76.2 46.4 77 46.1 77.8 46.2z"/><path fill="#6A767D" d="M79.6 45.5c2.7-2.4 8.1-1.8 9.1 2.1c.5 .9 1.9-1.2 2.2-1.7L91.4 45.8c.6 1.1 .6 1.2 .2 2.5c-1.1 4.2-6.5 8.1-10.7 5.6C77.8 52 77.5 48.3 79.6 45.5z"/><path fill="#7C878E" d="M62.8 50.5c.4 .1 .4 .5 0 .6c-.7 .8-1.1 1.7-1.8 2.5c-1 1.2-2.7 2.5-4 3.4c-.7 .5-5.3 3.2-5.8 2.7c0-.9 .3-1.8-.6-2.3c1-.4 2.3-1.3 3.2-1.9c3.3-2.2 6.2-5.1 8.8-8.1C62.6 48.5 62.6 49.5 62.8 50.5z"/><path fill="#E9CFA5" d="M29.1 35.2l3.3-.5l1.3 0c-.4 .6-.6 1.6-1.1 2.1c-.8 .9-2.4 1.9-3.3 2.8c-1.2 1.1-2.4 2.3-3.5 3.5c-.3 .3-1.6 2-1.8 2.1c-.1 .1-.2 .1-.4 .1L21 44.9c.2 0 .6 .1 .6-.2c-.4 0-.9-.1-1.3-.2c-.2 0-.4 .1-.4-.2c1.5-1.2 3.2-2.3 4.7-3.6c.8-.7 1.9-1.7 2.6-2.4c.3-.3 1.9-2 2-2.2c.2-.5-.5-.9 .4-.8C29.6 35.1 29.3 35.2 29.1 35.2z"/><path fill="#606A73" d="M62.8 50.5l2.2 0l12-1.7l.2 2.1c-3.7 .8-7.4 1.9-11.2 2.3c-.5 .1-.7 .6-1 .9c-.4-.5-1.1-.8-1.4-1.4c-.2-.3-.6-1.3-.7-1.7C62.7 51 62.8 50.7 62.8 50.5z"/><path fill="#6B767D" d="M9.5 42.9c1.5-1.2 5.1-1.4 6.1 .5c1 .2 1.6 .9 2 2c.4-.2 .8-.5 1.1-.7c.2 .4 .3 .7 .4 1.2c.1 .4 0 .9 0 1.3c-.1 .3-.2 .6-.5 .9C18.4 49.7 17.7 51.4 16.1 52.1C10.7 52.9 6.8 47.5 9.5 42.9z"/><path fill="#EB4A25" d="M27.1 49.2c-.5-.2-3.6-.9-3.7-1.1c-.2-.3 1.2-2.2 1.5-2.5c2-2.4 4.5-4.7 6.9-6.8C30.8 42.5 28.7 45.6 27.1 49.2z"/><path fill="#82888D" d="M91.4 45.8c-.5 .8-1.5 2.4-2.5 2.3c-.4 0-.6-1.2-.8-1.5c-1.3-2.3-4.6-2.6-6.9-1.8L79.6 45.5C82.4 42 89.3 41.6 91.4 45.8z"/><path fill="#606A72" d="M19.1 47.2c.1 .2 .4 .5 .7 .6l6.8 2.1c-.3 .5-.4 1.9-.7 2.3c-.2 .3-1-.1-1.3-.2c-.8-.3-3.6-1.9-4.1-1.9c-.5 0-2.2 1.3-3 1.6c-.5 .2-1 .3-1.5 .4c.7-.9 1.6-1.4 1.9-2.6C18.2 48.6 18.1 47.5 19.1 47.2z"/><path fill="#F1502A" d="M54.8 26.8c-1.1 0-2.2-.3-3.3-.3c-1.7-.1-3.3 .1-5-.1C48.6 23.9 53.4 22.7 56.2 24.5c.2 .3 .1 .8-.2 1.4C56 26.8 55.6 27.1 54.8 26.8z"/><path fill="#6F7A82" d="M67.1 64.5c.7 .2 1.5 0 1.9 .8c.8 1.7-2.2 2.8-3.5 3.1c-1.5 .3-4.1 .6-2.9-1.7c.8-1.5 .9-.7 1.7-.6c.7 .1 1.9-.1 2.3-.7C66.9 65.1 67 64.5 67.1 64.5z"/><path fill="#848A8F" d="M18.7 44.7c.1 .4-.1 .4-.3 .6c-1.5 1.4-1.1-.5-2-1.2c-.3-.2-.7-.2-1-.4c-.3-.2-.3-.6-.4-.7c-.5-.5-2.4-.7-3.1-.7L9.5 42.9c1.3-2.3 4.7-2.4 6.8-1.1C17.5 42.5 18.2 43.4 18.7 44.7z"/><path fill="#5D656B" d="M64.5 65.1l-3.2-5.9l.1-.2l1.5-1.1l3 6.7C65.8 65.2 64.9 65.2 64.5 65.1z"/><path fill="#747D84" d="M29.4 70.3c-.7 0-3.3 0-3.4-1c0-.6 .6-1.3 1-1.6c1.4-1 .9-.2 1.6 .2c.5 .2 1.3 .3 1.8 .3C30.7 68.8 30.2 70.1 29.4 70.3z"/><path fill="#666F78" d="M29.4 70.3c.5-.4 .7-1.7 1.1-2.1c.1-.2 .5-.2 .8-.4c.5-.3 .7-1 1.4-.2C34.2 69.4 30.6 70.2 29.4 70.3z"/><path fill="#D94022" d="M56.2 24.5c1 .6 1.8 1.7 1.8 2.9L54.8 26.8c.3 0 .5 0 .8 0C55.4 26.1 55.9 25.1 56.2 24.5z"/><path fill="#E54D27" d="M23.4 45.9l-1 1.7c-1.2-.4-2.8-.2-2.4-2L23.4 45.9z"/><path fill="#5F6367" d="M29.3 66.9c-.1-.1 .7-2.7 .9-2.8c.3-.2 1.1 .4 1.5 .5C31.1 65.7 31 67.7 29.3 66.9z"/><path fill="#472F1B" d="M46.8 35.7c1-.1 3.6 0 4.3 .5c.2 .1 .6 .6 .7 .8c.3 1-.5 5.7-1.2 6.5c-.2 .3-.8 .7-1.2 .8c-.8 .2-3.9 .1-4.8 0c-2.5-.4-1.8-2.1-1.4-3.9C43.8 38 44 36 46.8 35.7z"/><path fill="#45301C" d="M38.3 35.9c1.4-.2 4.2-.5 4.2 1.6c0 .8-1 4.4-1.4 5.2c-.8 1.8-2.6 1.7-4.4 1.6c-3.7-.2-3.1-2.1-2-4.9C35.4 37.5 36.1 36.1 38.3 35.9z"/><path fill="#462F1B" d="M55.4 36.2c1.5-.3 4.3 0 5.1 1.5c.6 1.1 .4 4.6-.1 5.7c-.8 1.7-4.1 1.4-5.7 1.2c-.9-.2-1.6-.4-1.8-1.4c-.1-.9 .4-4.3 .7-5.2C54 37 54.4 36.3 55.4 36.2z"/><circle fill="#48301B" cx="83.8" cy="49.3" r="3.8"/><path fill="#49301A" d="M15.1 44c.5 .4 1.3 1.7 1.4 2.4c1 5.8-6.5 5.5-6.7 .4C9.7 43.9 12.8 42.2 15.1 44z"/><path fill="#4EB0DD" d="M46.2 36.8c.8-.1 3.6-.1 4.3 .2c.4 .2 .5 .5 .5 1c0 .7-.7 4.5-1.1 5c-.1 .1-.2 .2-.3 .3c-.6 .3-5.1 .3-5.5-.3c-.3-.5 .6-4.3 .9-5.1C45.2 37.4 45.5 36.9 46.2 36.8z"/><path fill="#49ADDA" d="M38.9 36.8c2.7-.3 2.7-.1 2.2 2.3c-.2 .8-.9 3.6-1.5 3.9c-.5 .3-4 .3-4.4 0c-.7-.5 .2-2.4 .4-3.1C36.3 37.9 36.6 37 38.9 36.8z"/><path fill="#50B0DD" d="M59.7 38.4c0 .4-.1 .7-.4 1.1C58.8 41.3 58 43 56.2 43.6c-.8 0-2.1 .2-2.3-.9c-.1-.3 .2-2.2 .3-2.7c.5-2.8 .6-3.5 3.7-2.8C58.8 37.4 59.4 37.5 59.7 38.4z"/><path fill="#3DA3D3" d="M59.7 38.4c.2 .7 .2 2.3 .2 3.1c-.2 2.5-1.5 2.2-3.7 2.1c.4-.7 1.3-1 1.8-1.7c.6-.8 .8-2 1.3-2.9C59.4 38.8 59.8 38.8 59.7 38.4z"/><circle fill="#F9970B" cx="83.8" cy="49.3" r="2.6"/><path fill="#F8950A" d="M12.7 44.4c2.8-.4 4 4.4 1.3 5C10.8 50.1 9.7 44.9 12.7 44.4z"/><path fill="#78C4E6" d="M37.8 37.7c2.3-.5 0 2.8-.9 2.6C35.7 40 36.8 37.9 37.8 37.7z"/></g></svg>